<svg width="537" height="1016" viewBox="0 0 537 1016" fill="none" xmlns="http://www.w3.org/2000/svg">
<g clip-path="url(#clip0)">
<rect x="-324" y="-4" width="1440" height="1024" fill="white"/>
<rect x="-2" y="-1" width="540" height="1018" fill="#E7ECFF"/>
<path fill-rule="evenodd" clip-rule="evenodd" d="M321 886.561L320.46 893.645L316.044 893.375C315.382 896.633 313.91 899.671 311.763 902.211L315.21 906.365L309.714 910.9L306.329 906.819C303.945 908.194 301.308 909.073 298.576 909.404L298.22 914L291.142 913.473L291.486 908.988C288.496 908.32 285.701 906.974 283.316 905.054L280.004 907.873L275.379 902.468L278.655 899.699C276.933 896.868 275.943 893.655 275.772 890.348L271 889.98L271.527 882.909L276.594 883.289C277.43 880.521 278.858 877.966 280.777 875.801L278.164 872.652L283.659 868.118L286.321 871.353C288.832 869.938 291.628 869.101 294.503 868.902L294.871 864L301.949 864.527L301.569 869.515C304.395 870.302 307.015 871.695 309.248 873.596L313.137 870.299L317.749 875.703L313.824 879.049C315.097 881.258 315.93 883.693 316.277 886.218L321 886.561ZM284.145 888.261C283.642 894.845 288.576 900.59 295.166 901.096C298.337 901.346 301.476 900.322 303.89 898.252C306.303 896.181 307.79 893.235 308.022 890.066C308.517 883.482 303.577 877.742 296.986 877.243C290.396 876.745 284.647 881.676 284.145 888.261Z" fill="#111B47"/>
<path d="M320.46 893.645L320.43 894.144L320.921 894.174L320.959 893.683L320.46 893.645ZM321 886.561L321.499 886.599L321.537 886.099L321.036 886.063L321 886.561ZM316.044 893.375L316.075 892.876L315.641 892.849L315.554 893.275L316.044 893.375ZM311.763 902.211L311.381 901.888L311.111 902.208L311.378 902.53L311.763 902.211ZM315.21 906.365L315.528 906.751L315.915 906.432L315.595 906.046L315.21 906.365ZM309.714 910.9L309.33 911.219L309.648 911.603L310.033 911.285L309.714 910.9ZM306.329 906.819L306.714 906.499L306.444 906.175L306.079 906.386L306.329 906.819ZM298.576 909.404L298.516 908.908L298.109 908.957L298.078 909.366L298.576 909.404ZM298.22 914L298.183 914.499L298.68 914.536L298.719 914.039L298.22 914ZM291.142 913.473L290.644 913.435L290.605 913.934L291.105 913.972L291.142 913.473ZM291.486 908.988L291.984 909.026L292.017 908.594L291.595 908.5L291.486 908.988ZM283.316 905.054L283.63 904.664L283.307 904.405L282.992 904.673L283.316 905.054ZM280.004 907.873L279.624 908.198L279.948 908.576L280.328 908.253L280.004 907.873ZM275.379 902.468L275.056 902.086L274.672 902.411L274.999 902.793L275.379 902.468ZM278.655 899.699L278.977 900.08L279.304 899.804L279.082 899.439L278.655 899.699ZM275.772 890.348L276.271 890.322L276.249 889.883L275.81 889.85L275.772 890.348ZM271 889.98L270.501 889.943L270.464 890.441L270.962 890.479L271 889.98ZM271.527 882.909L271.565 882.411L271.066 882.373L271.029 882.872L271.527 882.909ZM276.594 883.289L276.556 883.788L276.956 883.818L277.072 883.434L276.594 883.289ZM280.777 875.801L281.151 876.133L281.435 875.812L281.162 875.482L280.777 875.801ZM278.164 872.652L277.846 872.266L277.459 872.585L277.779 872.971L278.164 872.652ZM283.659 868.118L284.046 867.8L283.727 867.413L283.341 867.732L283.659 868.118ZM286.321 871.353L285.935 871.671L286.202 871.994L286.567 871.789L286.321 871.353ZM294.503 868.902L294.538 869.401L294.97 869.371L295.002 868.939L294.503 868.902ZM294.871 864L294.909 863.501L294.41 863.464L294.373 863.963L294.871 864ZM301.949 864.527L302.448 864.565L302.486 864.066L301.987 864.028L301.949 864.527ZM301.569 869.515L301.071 869.477L301.039 869.886L301.435 869.996L301.569 869.515ZM309.248 873.596L308.924 873.976L309.248 874.252L309.572 873.977L309.248 873.596ZM313.137 870.299L313.517 869.974L313.194 869.595L312.814 869.918L313.137 870.299ZM317.749 875.703L318.074 876.084L318.454 875.759L318.13 875.379L317.749 875.703ZM313.824 879.049L313.5 878.668L313.183 878.938L313.391 879.299L313.824 879.049ZM316.277 886.218L315.782 886.286L315.837 886.687L316.241 886.717L316.277 886.218ZM295.166 901.096L295.205 900.597L295.204 900.597L295.166 901.096ZM284.145 888.261L283.646 888.223L283.646 888.223L284.145 888.261ZM303.89 898.252L304.215 898.631L304.215 898.631L303.89 898.252ZM308.022 890.066L307.523 890.029L307.523 890.03L308.022 890.066ZM296.986 877.243L296.949 877.742L296.949 877.742L296.986 877.243ZM320.959 893.683L321.499 886.599L320.501 886.523L319.962 893.607L320.959 893.683ZM316.014 893.874L320.43 894.144L320.491 893.146L316.075 892.876L316.014 893.874ZM312.145 902.534C314.346 899.93 315.855 896.814 316.534 893.475L315.554 893.275C314.909 896.451 313.474 899.412 311.381 901.888L312.145 902.534ZM315.595 906.046L312.148 901.892L311.378 902.53L314.825 906.684L315.595 906.046ZM310.033 911.285L315.528 906.751L314.892 905.98L309.396 910.514L310.033 911.285ZM305.944 907.138L309.33 911.219L310.099 910.58L306.714 906.499L305.944 907.138ZM298.636 909.901C301.435 909.562 304.137 908.661 306.579 907.252L306.079 906.386C303.754 907.727 301.181 908.585 298.516 908.908L298.636 909.901ZM298.719 914.039L299.075 909.443L298.078 909.366L297.722 913.961L298.719 914.039ZM291.105 913.972L298.183 914.499L298.257 913.501L291.179 912.974L291.105 913.972ZM290.987 908.95L290.644 913.435L291.641 913.511L291.984 909.026L290.987 908.95ZM283.002 905.443C285.447 907.412 288.313 908.791 291.377 909.476L291.595 908.5C288.68 907.849 285.955 906.537 283.63 904.664L283.002 905.443ZM280.328 908.253L283.64 905.435L282.992 904.673L279.68 907.492L280.328 908.253ZM274.999 902.793L279.624 908.198L280.384 907.547L275.759 902.143L274.999 902.793ZM278.332 899.317L275.056 902.086L275.702 902.85L278.977 900.08L278.332 899.317ZM275.272 890.374C275.447 893.764 276.463 897.057 278.227 899.958L279.082 899.439C277.403 896.679 276.438 893.547 276.271 890.322L275.272 890.374ZM270.962 890.479L275.733 890.847L275.81 889.85L271.038 889.482L270.962 890.479ZM271.029 882.872L270.501 889.943L271.499 890.018L272.026 882.947L271.029 882.872ZM276.631 882.791L271.565 882.411L271.49 883.408L276.556 883.788L276.631 882.791ZM280.403 875.47C278.436 877.689 276.973 880.307 276.115 883.145L277.072 883.434C277.888 880.735 279.28 878.244 281.151 876.133L280.403 875.47ZM277.779 872.971L280.392 876.121L281.162 875.482L278.549 872.333L277.779 872.971ZM283.341 867.732L277.846 872.266L278.482 873.038L283.978 868.503L283.341 867.732ZM286.708 871.035L284.046 867.8L283.273 868.435L285.935 871.671L286.708 871.035ZM294.469 868.403C291.519 868.607 288.652 869.466 286.076 870.917L286.567 871.789C289.013 870.41 291.736 869.595 294.538 869.401L294.469 868.403ZM294.373 863.963L294.005 868.865L295.002 868.939L295.37 864.037L294.373 863.963ZM301.987 864.028L294.909 863.501L294.834 864.499L301.912 865.026L301.987 864.028ZM302.068 869.553L302.448 864.565L301.451 864.489L301.071 869.477L302.068 869.553ZM309.572 873.215C307.284 871.267 304.599 869.84 301.703 869.033L301.435 869.996C304.191 870.764 306.746 872.123 308.924 873.976L309.572 873.215ZM312.814 869.918L308.925 873.214L309.572 873.977L313.46 870.68L312.814 869.918ZM318.13 875.379L313.517 869.974L312.757 870.624L317.369 876.028L318.13 875.379ZM314.148 879.43L318.074 876.084L317.425 875.323L313.5 878.668L314.148 879.43ZM316.773 886.15C316.417 883.561 315.563 881.064 314.257 878.799L313.391 879.299C314.632 881.452 315.444 883.825 315.782 886.286L316.773 886.15ZM321.036 886.063L316.313 885.719L316.241 886.717L320.964 887.06L321.036 886.063ZM295.204 900.597C288.889 900.112 284.162 894.607 284.643 888.299L283.646 888.223C283.123 895.082 288.263 901.067 295.128 901.594L295.204 900.597ZM303.564 897.872C301.252 899.856 298.243 900.837 295.205 900.597L295.127 901.594C298.43 901.854 301.701 900.788 304.215 898.631L303.564 897.872ZM307.523 890.03C307.301 893.066 305.876 895.889 303.564 897.872L304.215 898.631C306.729 896.474 308.279 893.405 308.52 890.103L307.523 890.03ZM296.949 877.742C303.265 878.22 307.998 883.72 307.523 890.029L308.52 890.104C309.036 883.243 303.89 877.264 297.024 876.745L296.949 877.742ZM284.643 888.299C285.125 881.99 290.633 877.264 296.949 877.742L297.024 876.745C290.159 876.226 284.17 881.363 283.646 888.223L284.643 888.299Z" fill="black"/>
<path fill-rule="evenodd" clip-rule="evenodd" d="M271 842.142V853.596L263.944 853.654C263.258 858.984 261.246 864.055 258.094 868.402L264.12 874.651L255.859 882.623L249.926 876.456C246.269 878.965 242.141 880.704 237.792 881.567V889H226.372V881.743C221.495 881.033 216.847 879.208 212.787 876.409L207.826 881.345L199.741 873.138L204.667 868.297C201.565 863.948 199.588 858.897 198.91 853.596H191V842.142H199.191C200.206 837.584 202.203 833.303 205.041 829.598L200.466 824.85L208.727 816.878L213.407 821.767C217.277 819.19 221.676 817.519 226.279 816.878V809H237.699V817.054C242.345 817.982 246.736 819.905 250.57 822.693L256.421 816.925L264.459 825.061L258.609 830.923C260.902 834.324 262.53 838.131 263.406 842.142H271ZM212.074 849.363C212.061 860.027 220.678 868.682 231.322 868.695C236.436 868.711 241.345 866.686 244.966 863.067C248.587 859.448 250.62 854.534 250.617 849.41C250.63 838.747 242.012 830.092 231.369 830.079C220.725 830.066 212.086 838.7 212.074 849.363Z" fill="#111B47"/>
<path d="M271 853.596L271.004 854.096L271.5 854.091V853.596H271ZM271 842.142H271.5V841.642H271V842.142ZM263.944 853.654L263.94 853.154L263.504 853.158L263.448 853.59L263.944 853.654ZM258.094 868.402L257.689 868.109L257.443 868.448L257.734 868.749L258.094 868.402ZM264.12 874.651L264.467 875.01L264.827 874.663L264.48 874.304L264.12 874.651ZM255.859 882.623L255.499 882.969L255.846 883.33L256.206 882.982L255.859 882.623ZM249.926 876.456L250.287 876.109L249.993 875.804L249.644 876.044L249.926 876.456ZM237.792 881.567L237.695 881.077L237.292 881.157V881.567H237.792ZM237.792 889V889.5H238.292V889H237.792ZM226.372 889H225.872V889.5H226.372V889ZM226.372 881.743H226.872V881.311L226.444 881.248L226.372 881.743ZM212.787 876.409L213.071 875.997L212.729 875.762L212.435 876.055L212.787 876.409ZM207.826 881.345L207.47 881.696L207.823 882.053L208.179 881.699L207.826 881.345ZM199.741 873.138L199.39 872.782L199.033 873.133L199.385 873.489L199.741 873.138ZM204.667 868.297L205.017 868.653L205.322 868.354L205.074 868.006L204.667 868.297ZM198.91 853.596L199.406 853.532L199.35 853.096H198.91V853.596ZM191 853.596H190.5V854.096H191V853.596ZM191 842.142V841.642H190.5V842.142H191ZM199.191 842.142V842.642H199.592L199.679 842.251L199.191 842.142ZM205.041 829.598L205.438 829.902L205.7 829.561L205.401 829.251L205.041 829.598ZM200.466 824.85L200.119 824.49L199.759 824.837L200.106 825.197L200.466 824.85ZM208.727 816.878L209.088 816.532L208.741 816.17L208.38 816.518L208.727 816.878ZM213.407 821.767L213.046 822.112L213.336 822.415L213.685 822.183L213.407 821.767ZM226.279 816.878L226.348 817.373L226.779 817.313V816.878H226.279ZM226.279 809V808.5H225.779V809H226.279ZM237.699 809H238.199V808.5H237.699V809ZM237.699 817.054H237.199V817.464L237.601 817.544L237.699 817.054ZM250.57 822.693L250.276 823.097L250.619 823.347L250.921 823.049L250.57 822.693ZM256.421 816.925L256.776 816.574L256.425 816.218L256.069 816.569L256.421 816.925ZM264.459 825.061L264.813 825.414L265.164 825.063L264.815 824.71L264.459 825.061ZM258.609 830.923L258.255 830.569L257.964 830.861L258.194 831.202L258.609 830.923ZM263.406 842.142L262.918 842.249L263.003 842.642H263.406V842.142ZM231.322 868.695L231.323 868.195L231.322 868.195L231.322 868.695ZM212.074 849.363L212.574 849.364L212.574 849.364L212.074 849.363ZM250.617 849.41L250.117 849.41L250.117 849.411L250.617 849.41ZM231.369 830.079L231.368 830.579L231.368 830.579L231.369 830.079ZM271.5 853.596V842.142H270.5V853.596H271.5ZM263.948 854.154L271.004 854.096L270.996 853.096L263.94 853.154L263.948 854.154ZM258.499 868.696C261.7 864.28 263.743 859.13 264.44 853.718L263.448 853.59C262.773 858.837 260.792 863.829 257.689 868.109L258.499 868.696ZM264.48 874.304L258.454 868.055L257.734 868.749L263.76 874.998L264.48 874.304ZM256.206 882.982L264.467 875.01L263.773 874.291L255.512 882.263L256.206 882.982ZM249.566 876.803L255.499 882.969L256.219 882.276L250.287 876.109L249.566 876.803ZM237.89 882.058C242.304 881.181 246.496 879.415 250.209 876.868L249.644 876.044C246.042 878.514 241.977 880.226 237.695 881.077L237.89 882.058ZM238.292 889V881.567H237.292V889H238.292ZM226.372 889.5H237.792V888.5H226.372V889.5ZM225.872 881.743V889H226.872V881.743H225.872ZM212.504 876.821C216.626 879.663 221.347 881.517 226.3 882.238L226.444 881.248C221.643 880.55 217.068 878.753 213.071 875.997L212.504 876.821ZM208.179 881.699L213.14 876.764L212.435 876.055L207.473 880.99L208.179 881.699ZM199.385 873.489L207.47 881.696L208.182 880.994L200.097 872.787L199.385 873.489ZM204.316 867.94L199.39 872.782L200.091 873.495L205.017 868.653L204.316 867.94ZM198.414 853.659C199.102 859.042 201.11 864.171 204.26 868.587L205.074 868.006C202.02 863.725 200.073 858.752 199.406 853.532L198.414 853.659ZM191 854.096H198.91V853.096H191V854.096ZM190.5 842.142V853.596H191.5V842.142H190.5ZM199.191 841.642H191V842.642H199.191V841.642ZM204.644 829.294C201.762 833.056 199.734 837.404 198.703 842.033L199.679 842.251C200.678 837.763 202.644 833.549 205.438 829.902L204.644 829.294ZM200.106 825.197L204.681 829.945L205.401 829.251L200.826 824.503L200.106 825.197ZM208.38 816.518L200.119 824.49L200.813 825.21L209.074 817.238L208.38 816.518ZM213.769 821.421L209.088 816.532L208.366 817.224L213.046 822.112L213.769 821.421ZM226.21 816.383C221.533 817.034 217.063 818.732 213.13 821.351L213.685 822.183C217.492 819.648 221.82 818.004 226.348 817.373L226.21 816.383ZM225.779 809V816.878H226.779V809H225.779ZM237.699 808.5H226.279V809.5H237.699V808.5ZM238.199 817.054V809H237.199V817.054H238.199ZM250.864 822.288C246.971 819.458 242.514 817.505 237.797 816.564L237.601 817.544C242.176 818.458 246.5 820.352 250.276 823.097L250.864 822.288ZM256.069 816.569L250.219 822.337L250.921 823.049L256.772 817.281L256.069 816.569ZM264.815 824.71L256.776 816.574L256.065 817.276L264.103 825.412L264.815 824.71ZM258.962 831.276L264.813 825.414L264.105 824.708L258.255 830.569L258.962 831.276ZM263.895 842.035C263.005 837.963 261.352 834.097 259.023 830.643L258.194 831.202C260.452 834.551 262.055 838.3 262.918 842.249L263.895 842.035ZM271 841.642H263.406V842.642H271V841.642ZM231.322 868.195C220.956 868.183 212.561 859.753 212.574 849.364L211.574 849.363C211.56 860.302 220.401 869.182 231.321 869.195L231.322 868.195ZM244.612 862.713C241.086 866.238 236.304 868.21 231.323 868.195L231.32 869.195C236.567 869.211 241.605 867.133 245.319 863.421L244.612 862.713ZM250.117 849.411C250.12 854.402 248.139 859.189 244.612 862.713L245.319 863.421C249.034 859.708 251.12 854.666 251.117 849.41L250.117 849.411ZM231.368 830.579C241.734 830.591 250.129 839.021 250.117 849.41L251.117 849.411C251.13 838.472 242.29 829.592 231.369 829.579L231.368 830.579ZM212.574 849.364C212.586 838.976 221.002 830.566 231.368 830.579L231.369 829.579C220.449 829.565 211.587 838.424 211.574 849.363L212.574 849.364Z" fill="black"/>
</g>
<defs>
<clipPath id="clip0">
<rect x="-324" y="-4" width="1440" height="1024" fill="white"/>
</clipPath>
</defs>
</svg>
