<svg width="1416" height="183" viewBox="0 0 1416 183" fill="none" xmlns="http://www.w3.org/2000/svg">
<g clip-path="url(#clip0)">
<rect x="-2" y="-342" width="1440" height="1024" fill="white"/>
<path d="M-19.65 189.65L-19.65 -2.64999L1417.65 -2.64999V189.65L-19.65 189.65Z" fill="#E7ECFF" stroke="black" stroke-width="0.7"/>
<path fill-rule="evenodd" clip-rule="evenodd" d="M1361 129.281L1360.73 132.822L1358.52 132.688C1358.19 134.316 1357.45 135.836 1356.38 137.105L1358.11 139.183L1355.36 141.45L1353.66 139.409C1352.47 140.097 1351.15 140.537 1349.79 140.702L1349.61 143L1346.07 142.737L1346.24 140.494C1344.75 140.16 1343.35 139.487 1342.16 138.527L1340.5 139.936L1338.19 137.234L1339.83 135.849C1338.97 134.434 1338.47 132.828 1338.39 131.174L1336 130.99L1336.26 127.455L1338.8 127.645C1339.22 126.26 1339.93 124.983 1340.89 123.901L1339.58 122.326L1342.33 120.059L1343.66 121.676C1344.92 120.969 1346.31 120.55 1347.75 120.451L1347.94 118L1351.47 118.263L1351.28 120.757C1352.7 121.151 1354.01 121.847 1355.12 122.798L1357.07 121.15L1359.37 123.852L1357.41 125.525C1358.05 126.629 1358.47 127.846 1358.64 129.109L1361 129.281ZM1342.57 130.13C1342.32 133.422 1344.79 136.295 1348.08 136.548C1349.67 136.673 1351.24 136.161 1352.44 135.126C1353.65 134.091 1354.39 132.618 1354.51 131.033C1354.76 127.741 1352.29 124.871 1348.99 124.622C1345.7 124.372 1342.82 126.838 1342.57 130.13Z" fill="#111B47"/>
<path d="M1360.73 132.822L1360.7 133.321L1361.19 133.351L1361.23 132.86L1360.73 132.822ZM1361 129.281L1361.5 129.319L1361.54 128.818L1361.04 128.782L1361 129.281ZM1358.52 132.688L1358.55 132.188L1358.12 132.162L1358.03 132.588L1358.52 132.688ZM1356.38 137.105L1356 136.783L1355.73 137.102L1356 137.425L1356.38 137.105ZM1358.11 139.183L1358.42 139.568L1358.81 139.249L1358.49 138.863L1358.11 139.183ZM1355.36 141.45L1354.97 141.769L1355.29 142.153L1355.68 141.835L1355.36 141.45ZM1353.66 139.409L1354.05 139.09L1353.78 138.765L1353.41 138.976L1353.66 139.409ZM1349.79 140.702L1349.73 140.206L1349.32 140.255L1349.29 140.664L1349.79 140.702ZM1349.61 143L1349.57 143.499L1350.07 143.536L1350.11 143.039L1349.61 143ZM1346.07 142.737L1345.57 142.698L1345.53 143.198L1346.03 143.235L1346.07 142.737ZM1346.24 140.494L1346.74 140.532L1346.77 140.1L1346.35 140.006L1346.24 140.494ZM1342.16 138.527L1342.47 138.138L1342.15 137.878L1341.83 138.146L1342.16 138.527ZM1340.5 139.936L1340.12 140.261L1340.45 140.64L1340.83 140.317L1340.5 139.936ZM1338.19 137.234L1337.87 136.852L1337.48 137.177L1337.81 137.559L1338.19 137.234ZM1339.83 135.849L1340.15 136.231L1340.48 135.955L1340.25 135.589L1339.83 135.849ZM1338.39 131.174L1338.89 131.148L1338.86 130.709L1338.42 130.675L1338.39 131.174ZM1336 130.99L1335.5 130.953L1335.46 131.45L1335.96 131.489L1336 130.99ZM1336.26 127.455L1336.3 126.956L1335.8 126.919L1335.77 127.417L1336.26 127.455ZM1338.8 127.645L1338.76 128.143L1339.16 128.173L1339.28 127.789L1338.8 127.645ZM1340.89 123.901L1341.26 124.232L1341.55 123.912L1341.27 123.581L1340.89 123.901ZM1339.58 122.326L1339.26 121.94L1338.88 122.259L1339.2 122.645L1339.58 122.326ZM1342.33 120.059L1342.72 119.741L1342.4 119.355L1342.01 119.673L1342.33 120.059ZM1343.66 121.676L1343.27 121.994L1343.54 122.318L1343.91 122.112L1343.66 121.676ZM1347.75 120.451L1347.79 120.95L1348.22 120.92L1348.25 120.488L1347.75 120.451ZM1347.94 118L1347.97 117.501L1347.47 117.464L1347.44 117.963L1347.94 118ZM1351.47 118.263L1351.97 118.301L1352.01 117.802L1351.51 117.765L1351.47 118.263ZM1351.28 120.757L1350.79 120.719L1350.75 121.129L1351.15 121.239L1351.28 120.757ZM1355.12 122.798L1354.8 123.179L1355.12 123.454L1355.45 123.179L1355.12 122.798ZM1357.07 121.15L1357.45 120.825L1357.13 120.446L1356.75 120.768L1357.07 121.15ZM1359.37 123.852L1359.7 124.232L1360.08 123.908L1359.75 123.527L1359.37 123.852ZM1357.41 125.525L1357.09 125.144L1356.77 125.414L1356.98 125.774L1357.41 125.525ZM1358.64 129.109L1358.14 129.177L1358.2 129.578L1358.6 129.608L1358.64 129.109ZM1348.08 136.548L1348.12 136.049L1348.12 136.049L1348.08 136.548ZM1342.57 130.13L1342.07 130.092L1342.07 130.092L1342.57 130.13ZM1352.44 135.126L1352.77 135.505L1352.77 135.505L1352.44 135.126ZM1354.51 131.033L1354.01 130.996L1354.01 130.997L1354.51 131.033ZM1348.99 124.622L1348.96 125.12L1348.96 125.12L1348.99 124.622ZM1361.23 132.86L1361.5 129.319L1360.5 129.243L1360.23 132.784L1361.23 132.86ZM1358.49 133.187L1360.7 133.321L1360.76 132.323L1358.55 132.188L1358.49 133.187ZM1356.76 137.428C1357.89 136.094 1358.66 134.498 1359.01 132.787L1358.03 132.588C1357.72 134.134 1357.02 135.577 1356 136.783L1356.76 137.428ZM1358.49 138.863L1356.77 136.786L1356 137.425L1357.72 139.502L1358.49 138.863ZM1355.68 141.835L1358.42 139.568L1357.79 138.797L1355.04 141.064L1355.68 141.835ZM1353.28 139.729L1354.97 141.769L1355.74 141.131L1354.05 139.09L1353.28 139.729ZM1349.85 141.199C1351.28 141.025 1352.66 140.564 1353.91 139.842L1353.41 138.976C1352.28 139.63 1351.03 140.048 1349.73 140.206L1349.85 141.199ZM1350.11 143.039L1350.29 140.741L1349.29 140.664L1349.11 142.961L1350.11 143.039ZM1346.03 143.235L1349.57 143.499L1349.65 142.501L1346.11 142.238L1346.03 143.235ZM1345.74 140.456L1345.57 142.698L1346.57 142.775L1346.74 140.532L1345.74 140.456ZM1341.84 138.916C1343.1 139.925 1344.56 140.631 1346.13 140.982L1346.35 140.006C1344.93 139.689 1343.6 139.049 1342.47 138.138L1341.84 138.916ZM1340.83 140.317L1342.48 138.908L1341.83 138.146L1340.18 139.555L1340.83 140.317ZM1337.81 137.559L1340.12 140.261L1340.88 139.611L1338.57 136.909L1337.81 137.559ZM1339.5 135.467L1337.87 136.852L1338.51 137.616L1340.15 136.231L1339.5 135.467ZM1337.89 131.2C1337.98 132.936 1338.5 134.623 1339.4 136.109L1340.25 135.589C1339.44 134.245 1338.97 132.719 1338.89 131.148L1337.89 131.2ZM1335.96 131.489L1338.35 131.673L1338.42 130.675L1336.04 130.492L1335.96 131.489ZM1335.77 127.417L1335.5 130.953L1336.5 131.027L1336.76 127.492L1335.77 127.417ZM1338.83 127.146L1336.3 126.956L1336.23 127.953L1338.76 128.143L1338.83 127.146ZM1340.51 123.569C1339.51 124.706 1338.76 126.047 1338.32 127.5L1339.28 127.789C1339.67 126.474 1340.35 125.261 1341.26 124.232L1340.51 123.569ZM1339.2 122.645L1340.5 124.22L1341.27 123.581L1339.97 122.007L1339.2 122.645ZM1342.01 119.673L1339.26 121.94L1339.9 122.712L1342.65 120.444L1342.01 119.673ZM1344.05 121.359L1342.72 119.741L1341.94 120.377L1343.27 121.994L1344.05 121.359ZM1347.72 119.952C1346.21 120.057 1344.74 120.497 1343.42 121.241L1343.91 122.112C1345.1 121.441 1346.42 121.044 1347.79 120.95L1347.72 119.952ZM1347.44 117.963L1347.25 120.414L1348.25 120.488L1348.43 118.037L1347.44 117.963ZM1351.51 117.765L1347.97 117.501L1347.9 118.499L1351.44 118.762L1351.51 117.765ZM1351.78 120.795L1351.97 118.301L1350.98 118.225L1350.79 120.719L1351.78 120.795ZM1355.45 122.417C1354.28 121.42 1352.9 120.689 1351.42 120.276L1351.15 121.239C1352.49 121.613 1353.74 122.275 1354.8 123.179L1355.45 122.417ZM1356.75 120.768L1354.8 122.416L1355.45 123.179L1357.39 121.531L1356.75 120.768ZM1359.75 123.527L1357.45 120.825L1356.69 121.474L1358.99 124.176L1359.75 123.527ZM1357.74 125.905L1359.7 124.232L1359.05 123.471L1357.09 125.144L1357.74 125.905ZM1359.13 129.041C1358.95 127.714 1358.51 126.435 1357.85 125.275L1356.98 125.774C1357.58 126.823 1357.98 127.978 1358.14 129.177L1359.13 129.041ZM1361.04 128.782L1358.67 128.61L1358.6 129.608L1360.96 129.779L1361.04 128.782ZM1348.12 136.049C1345.1 135.818 1342.84 133.185 1343.07 130.168L1342.07 130.092C1341.8 133.66 1344.47 136.772 1348.04 137.046L1348.12 136.049ZM1352.12 134.746C1351.01 135.695 1349.58 136.164 1348.12 136.049L1348.04 137.046C1349.76 137.182 1351.46 136.627 1352.77 135.505L1352.12 134.746ZM1354.01 130.997C1353.91 132.448 1353.22 133.798 1352.12 134.746L1352.77 135.505C1354.08 134.384 1354.88 132.787 1355.01 131.07L1354.01 130.997ZM1348.96 125.12C1351.98 125.349 1354.24 127.979 1354.01 130.996L1355.01 131.071C1355.28 127.503 1352.6 124.393 1349.03 124.123L1348.96 125.12ZM1343.07 130.168C1343.3 127.152 1345.93 124.892 1348.96 125.12L1349.03 124.123C1345.46 123.853 1342.35 126.525 1342.07 130.092L1343.07 130.168Z" fill="black"/>
<path fill-rule="evenodd" clip-rule="evenodd" d="M1336 97.4996V102.511L1332.91 102.536C1332.61 104.868 1331.73 107.086 1330.35 108.988L1332.99 111.722L1329.38 115.21L1326.78 112.512C1325.18 113.61 1323.37 114.37 1321.47 114.748V118H1316.48V114.825C1314.34 114.515 1312.31 113.716 1310.53 112.491L1308.36 114.651L1304.82 111.061L1306.98 108.942C1305.62 107.04 1304.76 104.83 1304.46 102.511H1301V97.4996H1304.58C1305.03 95.5053 1305.9 93.6324 1307.14 92.0116L1305.14 89.9343L1308.76 86.4467L1310.8 88.5854C1312.5 87.458 1314.42 86.727 1316.43 86.4467V83H1321.43V86.5236C1323.46 86.9294 1325.38 87.771 1327.06 88.9906L1329.62 86.4672L1333.14 90.0267L1330.58 92.5911C1331.58 94.0794 1332.29 95.745 1332.68 97.4996H1336ZM1310.22 100.659C1310.21 105.324 1313.98 109.111 1318.64 109.117C1320.88 109.123 1323.03 108.237 1324.61 106.654C1326.19 105.071 1327.08 102.921 1327.08 100.68C1327.09 96.0142 1323.32 92.2276 1318.66 92.2219C1314 92.2162 1310.23 95.9937 1310.22 100.659Z" fill="#111B47"/>
<path d="M1336 102.511L1336 103.011L1336.5 103.006V102.511H1336ZM1336 97.4996H1336.5V96.9996H1336V97.4996ZM1332.91 102.536L1332.91 102.036L1332.47 102.04L1332.42 102.472L1332.91 102.536ZM1330.35 108.988L1329.95 108.695L1329.7 109.034L1329.99 109.336L1330.35 108.988ZM1332.99 111.722L1333.34 112.082L1333.7 111.735L1333.35 111.375L1332.99 111.722ZM1329.38 115.21L1329.02 115.556L1329.36 115.917L1329.72 115.57L1329.38 115.21ZM1326.78 112.512L1327.14 112.165L1326.85 111.86L1326.5 112.1L1326.78 112.512ZM1321.47 114.748L1321.37 114.258L1320.97 114.338V114.748H1321.47ZM1321.47 118V118.5H1321.97V118H1321.47ZM1316.48 118H1315.98V118.5H1316.48V118ZM1316.48 114.825H1316.98V114.393L1316.55 114.33L1316.48 114.825ZM1310.53 112.491L1310.82 112.08L1310.47 111.844L1310.18 112.137L1310.53 112.491ZM1308.36 114.651L1308.01 115.002L1308.36 115.36L1308.71 115.005L1308.36 114.651ZM1304.82 111.061L1304.47 110.704L1304.12 111.055L1304.47 111.411L1304.82 111.061ZM1306.98 108.942L1307.33 109.299L1307.63 109L1307.39 108.652L1306.98 108.942ZM1304.46 102.511L1304.96 102.447L1304.9 102.011H1304.46V102.511ZM1301 102.511H1300.5V103.011H1301V102.511ZM1301 97.4996V96.9996H1300.5V97.4996H1301ZM1304.58 97.4996V97.9996H1304.98L1305.07 97.6083L1304.58 97.4996ZM1307.14 92.0116L1307.54 92.3157L1307.8 91.9743L1307.5 91.6646L1307.14 92.0116ZM1305.14 89.9343L1304.79 89.5746L1304.43 89.9215L1304.78 90.2813L1305.14 89.9343ZM1308.76 86.4467L1309.12 86.1009L1308.77 85.7383L1308.41 86.0869L1308.76 86.4467ZM1310.8 88.5854L1310.44 88.9312L1310.73 89.2338L1311.08 89.0016L1310.8 88.5854ZM1316.43 86.4467L1316.5 86.9419L1316.93 86.8819V86.4467H1316.43ZM1316.43 83V82.5H1315.93V83H1316.43ZM1321.43 83H1321.93V82.5H1321.43V83ZM1321.43 86.5236H1320.93V86.9336L1321.33 87.0139L1321.43 86.5236ZM1327.06 88.9906L1326.77 89.395L1327.11 89.6444L1327.41 89.3467L1327.06 88.9906ZM1329.62 86.4672L1329.98 86.1158L1329.63 85.7605L1329.27 86.1111L1329.62 86.4672ZM1333.14 90.0267L1333.49 90.3799L1333.84 90.0285L1333.49 89.6753L1333.14 90.0267ZM1330.58 92.5911L1330.22 92.2379L1329.93 92.5293L1330.16 92.8707L1330.58 92.5911ZM1332.68 97.4996L1332.19 97.6062L1332.28 97.9996H1332.68V97.4996ZM1318.64 109.117L1318.64 108.617L1318.64 108.617L1318.64 109.117ZM1310.22 100.659L1310.72 100.66L1310.72 100.66L1310.22 100.659ZM1327.08 100.68L1326.58 100.679L1326.58 100.68L1327.08 100.68ZM1318.66 92.2219L1318.66 92.7219L1318.66 92.7219L1318.66 92.2219ZM1336.5 102.511V97.4996H1335.5V102.511H1336.5ZM1332.92 103.036L1336 103.011L1336 102.011L1332.91 102.036L1332.92 103.036ZM1330.76 109.282C1332.19 107.312 1333.1 105.015 1333.41 102.6L1332.42 102.472C1332.13 104.721 1331.28 106.861 1329.95 108.695L1330.76 109.282ZM1333.35 111.375L1330.71 108.641L1329.99 109.336L1332.63 112.069L1333.35 111.375ZM1329.72 115.57L1333.34 112.082L1332.64 111.362L1329.03 114.85L1329.72 115.57ZM1326.42 112.859L1329.02 115.556L1329.74 114.863L1327.14 112.165L1326.42 112.859ZM1321.57 115.239C1323.54 114.848 1325.41 114.06 1327.06 112.924L1326.5 112.1C1324.95 113.159 1323.21 113.893 1321.37 114.258L1321.57 115.239ZM1321.97 118V114.748H1320.97V118H1321.97ZM1316.48 118.5H1321.47V117.5H1316.48V118.5ZM1315.98 114.825V118H1316.98V114.825H1315.98ZM1310.25 112.903C1312.09 114.171 1314.19 114.998 1316.4 115.32L1316.55 114.33C1314.49 114.031 1312.53 113.261 1310.82 112.08L1310.25 112.903ZM1308.71 115.005L1310.88 112.846L1310.18 112.137L1308.01 114.296L1308.71 115.005ZM1304.47 111.411L1308.01 115.002L1308.72 114.3L1305.18 110.71L1304.47 111.411ZM1306.63 108.586L1304.47 110.704L1305.17 111.417L1307.33 109.299L1306.63 108.586ZM1303.96 102.574C1304.27 104.975 1305.17 107.263 1306.57 109.233L1307.39 108.652C1306.08 106.817 1305.24 104.685 1304.96 102.447L1303.96 102.574ZM1301 103.011H1304.46V102.011H1301V103.011ZM1300.5 97.4996V102.511H1301.5V97.4996H1300.5ZM1304.58 96.9996H1301V97.9996H1304.58V96.9996ZM1306.75 91.7075C1305.46 93.3861 1304.56 95.3257 1304.1 97.3908L1305.07 97.6083C1305.5 95.685 1306.34 93.8787 1307.54 92.3157L1306.75 91.7075ZM1304.78 90.2813L1306.78 92.3585L1307.5 91.6646L1305.5 89.5874L1304.78 90.2813ZM1308.41 86.0869L1304.79 89.5746L1305.49 90.2941L1309.1 86.8065L1308.41 86.0869ZM1311.16 88.2397L1309.12 86.1009L1308.39 86.7924L1310.44 88.9312L1311.16 88.2397ZM1316.37 85.9514C1314.28 86.2422 1312.28 87.0002 1310.53 88.1693L1311.08 89.0016C1312.71 87.9158 1314.56 87.2119 1316.5 86.9419L1316.37 85.9514ZM1315.93 83V86.4467H1316.93V83H1315.93ZM1321.43 82.5H1316.43V83.5H1321.43V82.5ZM1321.93 86.5236V83H1320.93V86.5236H1321.93ZM1327.36 88.5862C1325.62 87.3242 1323.63 86.4533 1321.53 86.0333L1321.33 87.0139C1323.29 87.4056 1325.15 88.2179 1326.77 89.395L1327.36 88.5862ZM1329.27 86.1111L1326.71 88.6346L1327.41 89.3467L1329.97 86.8232L1329.27 86.1111ZM1333.49 89.6753L1329.98 86.1158L1329.27 86.8186L1332.78 90.3781L1333.49 89.6753ZM1330.93 92.9444L1333.49 90.3799L1332.78 89.6735L1330.22 92.2379L1330.93 92.9444ZM1333.17 97.3929C1332.77 95.5766 1332.03 93.8523 1330.99 92.3116L1330.16 92.8707C1331.13 94.3064 1331.82 95.9134 1332.19 97.6062L1333.17 97.3929ZM1336 96.9996H1332.68V97.9996H1336V96.9996ZM1318.64 108.617C1314.26 108.611 1310.71 105.05 1310.72 100.66L1309.72 100.658C1309.71 105.599 1313.71 109.611 1318.64 109.617L1318.64 108.617ZM1324.26 106.301C1322.77 107.79 1320.75 108.623 1318.64 108.617L1318.64 109.617C1321.01 109.624 1323.29 108.685 1324.96 107.008L1324.26 106.301ZM1326.58 100.68C1326.58 102.789 1325.75 104.811 1324.26 106.301L1324.96 107.008C1326.64 105.331 1327.58 103.053 1327.58 100.679L1326.58 100.68ZM1318.66 92.7219C1323.04 92.7272 1326.59 96.2888 1326.58 100.679L1327.58 100.68C1327.59 95.7395 1323.6 91.7279 1318.66 91.7219L1318.66 92.7219ZM1310.72 100.66C1310.72 96.2695 1314.28 92.7166 1318.66 92.7219L1318.66 91.7219C1313.73 91.7159 1309.73 95.7178 1309.72 100.658L1310.72 100.66Z" fill="black"/>
</g>
<defs>
<clipPath id="clip0">
<rect x="-2" y="-342" width="1440" height="1024" fill="white"/>
</clipPath>
</defs>
</svg>
